<mxfile host="Electron" agent="Mozilla/5.0 (Windows NT 10.0; Win64; x64) AppleWebKit/537.36 (KHTML, like Gecko) draw.io/25.0.1 Chrome/128.0.6613.186 Electron/32.2.6 Safari/537.36" version="25.0.1">
  <diagram name="Page-1" id="iSszEjhPqJi5p6O_gxqB">
    <mxGraphModel dx="501" dy="301" grid="1" gridSize="10" guides="1" tooltips="1" connect="1" arrows="1" fold="1" page="1" pageScale="1" pageWidth="1169" pageHeight="827" math="0" shadow="0">
      <root>
        <mxCell id="0" />
        <mxCell id="1" parent="0" />
        <mxCell id="AmRkIxBmxQRmFKca41aJ-13" value="" style="rounded=0;whiteSpace=wrap;html=1;" vertex="1" parent="1">
          <mxGeometry x="80" y="560" width="80" height="240" as="geometry" />
        </mxCell>
        <mxCell id="AmRkIxBmxQRmFKca41aJ-1" value="i" style="whiteSpace=wrap;html=1;aspect=fixed;" vertex="1" parent="1">
          <mxGeometry x="240" y="280" width="80" height="80" as="geometry" />
        </mxCell>
        <mxCell id="AmRkIxBmxQRmFKca41aJ-2" value="j" style="whiteSpace=wrap;html=1;aspect=fixed;" vertex="1" parent="1">
          <mxGeometry x="390" y="334" width="80" height="80" as="geometry" />
        </mxCell>
        <mxCell id="AmRkIxBmxQRmFKca41aJ-3" value="i" style="whiteSpace=wrap;html=1;aspect=fixed;" vertex="1" parent="1">
          <mxGeometry x="560" y="270" width="80" height="80" as="geometry" />
        </mxCell>
        <mxCell id="AmRkIxBmxQRmFKca41aJ-4" value="j" style="whiteSpace=wrap;html=1;aspect=fixed;" vertex="1" parent="1">
          <mxGeometry x="480" y="220" width="80" height="80" as="geometry" />
        </mxCell>
        <mxCell id="AmRkIxBmxQRmFKca41aJ-5" value="i" style="whiteSpace=wrap;html=1;aspect=fixed;" vertex="1" parent="1">
          <mxGeometry x="250" y="430" width="80" height="80" as="geometry" />
        </mxCell>
        <mxCell id="AmRkIxBmxQRmFKca41aJ-6" value="j" style="whiteSpace=wrap;html=1;aspect=fixed;" vertex="1" parent="1">
          <mxGeometry x="330" y="490" width="80" height="80" as="geometry" />
        </mxCell>
        <mxCell id="AmRkIxBmxQRmFKca41aJ-7" value="i" style="whiteSpace=wrap;html=1;aspect=fixed;" vertex="1" parent="1">
          <mxGeometry x="570" y="440" width="80" height="80" as="geometry" />
        </mxCell>
        <mxCell id="AmRkIxBmxQRmFKca41aJ-8" value="j" style="whiteSpace=wrap;html=1;aspect=fixed;" vertex="1" parent="1">
          <mxGeometry x="490" y="480" width="80" height="80" as="geometry" />
        </mxCell>
        <mxCell id="AmRkIxBmxQRmFKca41aJ-10" value="1" style="rounded=0;whiteSpace=wrap;html=1;" vertex="1" parent="1">
          <mxGeometry x="80" y="570" width="10" height="50" as="geometry" />
        </mxCell>
        <mxCell id="AmRkIxBmxQRmFKca41aJ-11" value="2" style="rounded=0;whiteSpace=wrap;html=1;" vertex="1" parent="1">
          <mxGeometry x="80" y="670" width="20" height="60" as="geometry" />
        </mxCell>
        <mxCell id="AmRkIxBmxQRmFKca41aJ-15" value="3" style="rounded=0;whiteSpace=wrap;html=1;" vertex="1" parent="1">
          <mxGeometry x="110" y="760" width="50" height="40" as="geometry" />
        </mxCell>
        <mxCell id="AmRkIxBmxQRmFKca41aJ-16" value="4" style="rounded=0;whiteSpace=wrap;html=1;" vertex="1" parent="1">
          <mxGeometry x="80" y="730" width="30" height="70" as="geometry" />
        </mxCell>
        <mxCell id="AmRkIxBmxQRmFKca41aJ-17" value="5" style="rounded=0;whiteSpace=wrap;html=1;" vertex="1" parent="1">
          <mxGeometry x="100" y="670" width="60" height="60" as="geometry" />
        </mxCell>
        <mxCell id="AmRkIxBmxQRmFKca41aJ-18" value="6" style="rounded=0;whiteSpace=wrap;html=1;" vertex="1" parent="1">
          <mxGeometry x="140" y="610" width="20" height="60" as="geometry" />
        </mxCell>
        <mxCell id="AmRkIxBmxQRmFKca41aJ-19" value="7" style="rounded=0;whiteSpace=wrap;html=1;" vertex="1" parent="1">
          <mxGeometry x="80" y="620" width="60" height="40" as="geometry" />
        </mxCell>
        <mxCell id="AmRkIxBmxQRmFKca41aJ-20" value="8" style="rounded=0;whiteSpace=wrap;html=1;" vertex="1" parent="1">
          <mxGeometry x="100" y="610" width="30" height="10" as="geometry" />
        </mxCell>
        <mxCell id="AmRkIxBmxQRmFKca41aJ-22" value="A" style="rounded=0;whiteSpace=wrap;html=1;" vertex="1" parent="1">
          <mxGeometry x="90" y="560" width="20" height="20" as="geometry" />
        </mxCell>
        <mxCell id="AmRkIxBmxQRmFKca41aJ-23" value="9" style="rounded=0;whiteSpace=wrap;html=1;" vertex="1" parent="1">
          <mxGeometry x="150" y="580" width="10" height="30" as="geometry" />
        </mxCell>
      </root>
    </mxGraphModel>
  </diagram>
</mxfile>
